Coordinates
version=1
nRows=10
nColumns=40
inDegrees=yes

Units are S.I. units (second, meters, Newtons, ...)
If the header above contains a line with 'inDegrees', this indicates whether rotational values are in degrees (yes) or radians (no).

endheader
time	pelvis_tilt	pelvis_list	pelvis_rotation	pelvis_tx	pelvis_ty	pelvis_tz	hip_flexion_r	hip_adduction_r	hip_rotation_r	knee_angle_r	knee_angle_r_beta	ankle_angle_r	subtalar_angle_r	mtp_angle_r	hip_flexion_l	hip_adduction_l	hip_rotation_l	knee_angle_l	knee_angle_l_beta	ankle_angle_l	subtalar_angle_l	mtp_angle_l	lumbar_extension	lumbar_bending	lumbar_rotation	arm_flex_r	arm_add_r	arm_rot_r	elbow_flex_r	pro_sup_r	wrist_flex_r	wrist_dev_r	arm_flex_l	arm_add_l	arm_rot_l	elbow_flex_l	pro_sup_l	wrist_flex_l	wrist_dev_l
      4.26500000	     -5.56990168	      3.99099725	      1.84785612	     -0.45342501	      0.79472190	     -0.80795909	     51.89644319	     -2.53770953	     -7.09166567	     71.87117502	      1.25438864	     20.84892128	      0.00000000	      0.00000000	     60.25885849	     -4.32468239	    -16.10748812	     27.95801093	      0.48795934	    -25.59420140	      0.00000000	      0.00000000	    -25.41392498	    -27.44257092	    -26.63319112	     82.16513520	    -12.73337864	     15.28722346	     52.79643590	     87.55124314	      0.00000000	      0.00000000	     89.96615639	     13.09079690	     21.46433250	     41.89730190	     32.94062818	      0.00000000	      0.00000000
      4.27000000	     -5.60899705	      4.05728865	      1.81093679	     -0.45330612	      0.79640958	     -0.80788907	     51.75495457	     -2.59050764	     -7.08972237	     71.53563974	      1.24853245	     20.72388596	      0.00000000	      0.00000000	     60.19374841	     -4.30354535	    -16.07723701	     27.97051179	      0.48817752	    -25.60642085	      0.00000000	      0.00000000	    -25.29348550	    -27.53435750	    -26.58788998	     82.16893051	    -12.73171552	     15.28488201	     52.79684167	     87.55070933	      0.00000000	      0.00000000	     89.96617986	     13.06657082	     21.47542535	     41.88773181	     32.92400304	      0.00000000	      0.00000000
      4.27500000	     -5.64621665	      4.04113499	      1.84444256	     -0.45318387	      0.79815732	     -0.80791155	     51.54709186	     -2.57768085	     -7.09670194	     71.10022214	      1.24093298	     20.54164355	      0.00000000	      0.00000000	     60.13557923	     -4.27518101	    -16.07063580	     27.93470249	      0.48755253	    -25.62297377	      0.00000000	      0.00000000	    -25.15705820	    -27.52059266	    -26.54298460	     82.14303490	    -12.74144550	     15.28250937	     52.78229871	     87.54905752	      0.00000000	      0.00000000	     89.96615658	     13.04497335	     21.45495924	     41.87583353	     32.90423646	      0.00000000	      0.00000000
      4.28000000	     -5.67752406	      4.03825047	      1.81329700	     -0.45310148	      0.79992806	     -0.80784820	     51.36822347	     -2.55636267	     -7.12471231	     70.69393844	      1.23384199	     20.35384311	      0.00000000	      0.00000000	     60.05756379	     -4.29462432	    -16.03650021	     27.90456579	      0.48702655	    -25.63651157	      0.00000000	      0.00000000	    -25.07601484	    -27.57948344	    -26.55305070	     82.13221960	    -12.71899249	     15.29334247	     52.79665162	     87.54930112	      0.00000000	      0.00000000	     89.96617424	     13.07032273	     21.49282668	     41.85709029	     32.88583867	      0.00000000	      0.00000000
      4.28500000	     -5.66587164	      4.03562405	      1.83048034	     -0.45293103	      0.80189268	     -0.80773380	     51.08346102	     -2.53523282	     -7.13278536	     70.20419577	      1.22529436	     20.09956136	      0.00000000	      0.00000000	     59.91300837	     -4.27629586	    -16.01981303	     27.85474117	      0.48615695	    -25.59782022	      0.00000000	      0.00000000	    -25.00015233	    -27.59878074	    -26.50299684	     82.07416690	    -12.71049052	     15.28795984	     52.80395117	     87.54746287	      0.00000000	      0.00000000	     89.96608402	     13.07505050	     21.55228187	     41.87268793	     32.86555257	      0.00000000	      0.00000000
      4.29000000	     -5.68577683	      3.97058724	      1.83145875	     -0.45281403	      0.80372561	     -0.80767318	     50.84884990	     -2.46088510	     -7.18438739	     69.75070698	      1.21737949	     19.83490917	      0.00000000	      0.00000000	     59.82337701	     -4.29507119	    -15.94151715	     27.77484618	      0.48476252	    -25.60490157	      0.00000000	      0.00000000	    -24.87415411	    -27.55252823	    -26.42648500	     82.03735587	    -12.70003716	     15.28152248	     52.82280609	     87.54599835	      0.00000000	      0.00000000	     89.96610916	     13.01705545	     21.55638321	     41.80582172	     32.82603001	      0.00000000	      0.00000000
      4.29500000	     -5.71408631	      4.03924839	      1.83048396	     -0.45267605	      0.80551078	     -0.80766037	     50.66936067	     -2.51507561	     -7.18300157	     69.41075440	      1.21144620	     19.70782893	      0.00000000	      0.00000000	     59.74652206	     -4.23679344	    -15.90734537	     27.77660218	      0.48479316	    -25.59585195	      0.00000000	      0.00000000	    -24.77227884	    -27.61696812	    -26.39145190	     82.05206156	    -12.69574393	     15.26716057	     52.81716367	     87.54426574	      0.00000000	      0.00000000	     89.96608531	     12.99331246	     21.55360650	     41.81516703	     32.81150757	      0.00000000	      0.00000000
      4.30000000	     -5.67227003	      3.90545036	      1.84616728	     -0.45252131	      0.80753891	     -0.80749211	     50.33056324	     -2.39837896	     -7.29460274	     68.85141188	      1.20168383	     19.34752140	      0.00000000	      0.00000000	     59.58350426	     -4.30103793	    -15.77599888	     27.70187406	      0.48348891	    -25.52639719	      0.00000000	      0.00000000	    -24.69991906	    -27.51806736	    -26.28918484	     81.98529565	    -12.68306197	     15.23820966	     52.81435422	     87.54091905	      0.00000000	      0.00000000	     89.96607106	     12.99880483	     21.66060596	     41.77834037	     32.75830074	      0.00000000	      0.00000000
      4.30500000	     -5.72940479	      3.97475055	      1.84576642	     -0.45241443	      0.80924998	     -0.80750844	     50.17806833	     -2.46490658	     -7.29582433	     68.48973198	      1.19537133	     19.22672311	      0.00000000	      0.00000000	     59.55520098	     -4.23146011	    -15.74834993	     27.70813628	      0.48359821	    -25.50333982	      0.00000000	      0.00000000	    -24.57835668	    -27.59475540	    -26.28796724	     82.00283967	    -12.68018390	     15.23903179	     52.82502474	     87.54004219	      0.00000000	      0.00000000	     89.96606000	     12.96673316	     21.66086046	     41.76162450	     32.74227201	      0.00000000	      0.00000000
      4.31000000	     -5.76723122	      4.00944939	      1.89395099	     -0.45229462	      0.81112154	     -0.80753436	     49.96495328	     -2.51816448	     -7.30183660	     68.01999930	      1.18717295	     19.03041548	      0.00000000	      0.00000000	     59.47850344	     -4.15783275	    -15.74706182	     27.68471719	      0.48318947	    -25.47211837	      0.00000000	      0.00000000	    -24.49322645	    -27.64232021	    -26.31873605	     81.96625170	    -12.67093350	     15.25406708	     52.81887757	     87.54096669	      0.00000000	      0.00000000	     89.96603774	     12.95488705	     21.66696645	     41.75754144	     32.72436976	      0.00000000	      0.00000000
